<svg width="200" height="200" viewBox="0 0 200 200" fill="none" xmlns="http://www.w3.org/2000/svg">
<path d="M197.561 100C197.561 153.881 153.881 197.561 100 197.561C46.1186 197.561 2.43902 153.881 2.43902 100C2.43902 46.1186 46.1186 2.43902 100 2.43902C153.881 2.43902 197.561 46.1186 197.561 100Z" fill="#1084E9"/>
<path fill-rule="evenodd" clip-rule="evenodd" d="M200 100C200 155.228 155.228 200 100 200C44.7715 200 0 155.228 0 100C0 44.7715 44.7715 0 100 0C155.228 0 200 44.7715 200 100ZM100 197.561C153.881 197.561 197.561 153.881 197.561 100C197.561 46.1186 153.881 2.43902 100 2.43902C46.1186 2.43902 2.43902 46.1186 2.43902 100C2.43902 153.881 46.1186 197.561 100 197.561Z" fill="black"/>
<path d="M100 26.8293L163.368 149.39H36.6323L100 26.8293Z" fill="#FFBB00"/>
</svg>
